<?xml version="1.0" standalone="no"?>
<!DOCTYPE svg PUBLIC "-//W3C//DTD SVG 20010904//EN"
 "http://www.w3.org/TR/2001/REC-SVG-20010904/DTD/svg10.dtd">
<svg version="1.0" xmlns="http://www.w3.org/2000/svg"
 width="288.000000pt" height="288.000000pt" viewBox="0 0 288.000000 288.000000"
 preserveAspectRatio="xMidYMid meet">

<g transform="translate(0.000000,288.000000) scale(0.100000,-0.100000)"
fill="#000000" stroke="none">
<path d="M1986 2364 c-3 -9 -6 -87 -6 -175 l0 -159 -199 0 c-199 0 -200 0
-230 -25 l-30 -26 -20 20 c-11 11 -31 23 -43 26 -13 3 -194 4 -403 3 l-380 -3
-3 -47 -3 -47 -52 -3 -52 -3 0 -650 0 -650 934 -3 c646 -1 938 1 945 8 11 11
20 1245 9 1283 -3 13 -15 17 -53 17 l-49 0 -3 48 -3 47 -102 3 -103 3 0 122
c0 99 -3 129 -18 156 -30 56 -121 93 -136 55z m83 -70 c21 -26 21 -35 21 -590
0 -310 -2 -564 -5 -564 -2 0 -16 5 -30 12 l-25 11 0 579 c0 348 4 578 9 578 5
0 19 -12 30 -26z m-1289 -919 l0 -605 -30 0 -30 0 0 605 0 605 30 0 30 0 0
-605z m687 583 l23 -21 0 -496 0 -496 -325 3 -325 3 0 514 0 515 302 0 c296 0
302 0 325 -22z m513 -408 l0 -429 40 -11 c54 -15 80 -62 59 -106 -24 -49 -46
-53 -297 -56 l-232 -3 0 491 0 491 25 27 24 26 191 0 190 0 0 -430z m200 -85
l0 -515 -31 0 c-28 0 -31 2 -23 23 5 12 10 244 11 515 3 483 4 492 23 492 20
0 20 -8 20 -515z m118 -87 l-3 -603 -30 0 -30 0 -3 603 -2 602 35 0 35 0 -2
-602z m-1626 -75 l3 -578 824 -3 c600 -1 827 1 837 9 12 9 14 113 14 580 l0
569 25 0 25 0 0 -605 0 -605 -892 2 -893 3 -3 603 -2 602 30 0 30 0 2 -577z
m800 -420 c12 -11 18 -30 18 -60 l0 -43 -325 0 -325 0 0 60 0 60 307 0 c271 0
309 -2 325 -17z m708 -48 l0 -65 -315 0 -315 0 0 49 c0 82 -4 81 337 81 l293
0 0 -65z"/>
<path d="M933 1815 c-3 -9 -1 -21 4 -26 5 -5 101 -8 234 -7 216 3 224 4 224
23 0 19 -8 20 -228 23 -200 2 -228 0 -234 -13z"/>
<path d="M940 1650 c-12 -7 -12 -13 -4 -27 10 -16 32 -18 215 -21 233 -3 252
-1 247 31 -3 22 -4 22 -223 24 -129 2 -226 -1 -235 -7z"/>
<path d="M933 1465 c-3 -9 -1 -21 4 -26 5 -5 101 -8 234 -7 216 3 224 4 224
23 0 19 -8 20 -228 23 -200 2 -228 0 -234 -13z"/>
<path d="M933 1295 c-3 -9 -1 -21 4 -26 5 -5 101 -8 234 -7 216 3 224 4 224
23 0 19 -8 20 -228 23 -200 2 -228 0 -234 -13z"/>
<path d="M933 1125 c-3 -9 -1 -21 4 -26 5 -5 101 -8 234 -7 216 3 224 4 224
23 0 19 -8 20 -228 23 -200 2 -228 0 -234 -13z"/>
<path d="M1620 1815 c-25 -30 3 -36 156 -33 141 3 149 4 149 23 0 19 -8 20
-146 23 -123 2 -148 0 -159 -13z"/>
<path d="M1619 1644 c-11 -14 -10 -18 6 -30 23 -17 255 -20 286 -4 23 13 25
36 3 44 -9 3 -75 6 -149 6 -110 0 -135 -3 -146 -16z"/>
<path d="M1616 1471 c-3 -5 -3 -16 0 -25 6 -14 26 -16 158 -14 143 3 151 4
151 23 0 19 -8 20 -152 23 -86 1 -154 -1 -157 -7z"/>
<path d="M1613 1295 c-11 -31 13 -36 163 -33 141 3 149 4 149 23 0 19 -8 20
-153 23 -132 2 -153 0 -159 -13z"/>
<path d="M1613 1125 c-11 -31 13 -36 163 -33 141 3 149 4 149 23 0 19 -8 20
-153 23 -132 2 -153 0 -159 -13z"/>
</g>
</svg>
